<svg width="316" height="141" viewBox="0 0 316 141" fill="none" xmlns="http://www.w3.org/2000/svg">
<g filter="url(#filter0_d_259_1766)">
<path d="M61.5856 92.1904C57.3266 92.1904 53.7686 91.1984 50.9117 89.2144C48.0547 87.2304 45.8988 84.5322 44.4438 81.1197C43.0154 77.7072 42.3011 73.8582 42.3011 69.5728C42.3011 65.2874 43.0154 61.4384 44.4438 58.0259C45.8723 54.6134 47.9754 51.9152 50.753 49.9312C53.5306 47.9472 56.9563 46.9552 61.0301 46.9552C65.1303 46.9552 68.7015 47.934 71.7437 49.8915C74.7858 51.8491 77.1402 54.5341 78.8067 57.9466C80.4997 61.3326 81.3462 65.208 81.3462 69.5728C81.3462 73.8582 80.513 77.7072 78.8464 81.1197C77.2063 84.5322 74.9049 87.2304 71.9421 89.2144C68.9793 91.1984 65.5271 92.1904 61.5856 92.1904ZM40.4758 91V33.8608H51.3482V61.6368H49.999V91H40.4758ZM59.8397 82.5878C62.1676 82.5878 64.0722 82.0059 65.5536 80.8419C67.035 79.678 68.1328 78.1172 68.847 76.1597C69.5613 74.1757 69.9184 71.9801 69.9184 69.5728C69.9184 67.192 69.5481 65.0228 68.8074 63.0653C68.0667 61.0813 66.9159 59.5073 65.3552 58.3434C63.8209 57.153 61.8501 56.5578 59.4429 56.5578C57.1943 56.5578 55.3691 57.1001 53.967 58.1846C52.5915 59.2692 51.5862 60.7903 50.9514 62.7478C50.3165 64.7054 49.999 66.9804 49.999 69.5728C49.999 72.1652 50.3165 74.4402 50.9514 76.3978C51.5862 78.3553 52.6179 79.8764 54.0464 80.961C55.5013 82.0455 57.4324 82.5878 59.8397 82.5878ZM82.5385 91V32.6704H93.3315V91H82.5385ZM116.179 92.1904C111.867 92.1904 108.084 91.2249 104.831 89.2938C101.577 87.3627 99.0373 84.7041 97.212 81.3181C95.4132 77.9056 94.5138 73.9905 94.5138 69.5728C94.5138 65.1022 95.4397 61.1739 97.2914 57.7878C99.1431 54.3754 101.696 51.7168 104.95 49.8122C108.203 47.9075 111.947 46.9552 116.179 46.9552C120.491 46.9552 124.274 47.9207 127.528 49.8518C130.808 51.7829 133.361 54.4547 135.186 57.8672C137.011 61.2532 137.924 65.1551 137.924 69.5728C137.924 74.017 136.998 77.9453 135.146 81.3578C133.321 84.7438 130.768 87.4023 127.488 89.3334C124.234 91.2381 120.465 92.1904 116.179 92.1904ZM116.179 82.1117C119.644 82.1117 122.224 80.9477 123.917 78.6198C125.636 76.2655 126.496 73.2498 126.496 69.5728C126.496 65.7635 125.623 62.7214 123.877 60.4464C122.158 58.1714 119.592 57.0339 116.179 57.0339C113.825 57.0339 111.894 57.563 110.386 58.6211C108.878 59.6793 107.754 61.1474 107.013 63.0256C106.299 64.9038 105.942 67.0862 105.942 69.5728C105.942 73.4085 106.801 76.4639 108.521 78.7389C110.267 80.9874 112.82 82.1117 116.179 82.1117ZM157.204 92.1904C152.76 92.1904 148.951 91.1984 145.777 89.2144C142.602 87.2304 140.169 84.5322 138.476 81.1197C136.783 77.7072 135.936 73.8582 135.936 69.5728C135.936 65.2345 136.809 61.359 138.555 57.9466C140.327 54.5341 142.814 51.8491 146.015 49.8915C149.216 47.934 152.998 46.9552 157.363 46.9552C162.416 46.9552 166.648 48.2382 170.061 50.8042C173.5 53.3437 175.695 56.8223 176.648 61.24L165.855 64.097C165.22 61.8749 164.109 60.1422 162.522 58.8989C160.961 57.6556 159.188 57.0339 157.204 57.0339C154.929 57.0339 153.065 57.5894 151.61 58.7005C150.155 59.7851 149.083 61.2797 148.396 63.1843C147.708 65.0625 147.364 67.192 147.364 69.5728C147.364 73.3027 148.184 76.3316 149.824 78.6595C151.491 80.961 153.951 82.1117 157.204 82.1117C159.638 82.1117 161.49 81.5562 162.76 80.4451C164.029 79.3341 164.982 77.7469 165.617 75.6835L176.648 77.985C175.431 82.5349 173.129 86.04 169.743 88.5002C166.357 90.9603 162.178 92.1904 157.204 92.1904ZM176.172 91L176.252 33.8608H187.203V68.7792L201.726 48.1456H215.059L199.583 69.5728L216.09 91H202.044L187.203 70.3664V91H176.172Z" fill="url(#paint0_linear_259_1766)"/>
<path d="M221.626 91V45.6061L210.913 52.193V40.289L221.626 33.8608H232.657V91H221.626ZM256.076 92.0317C253.22 92.0317 250.495 91.4629 247.902 90.3254C245.31 89.1615 243.048 87.5346 241.117 85.4448C239.212 83.355 237.85 80.8948 237.03 78.0643L247.506 75.2867C248.061 77.3765 249.146 79.0034 250.759 80.1674C252.399 81.3049 254.172 81.8736 256.076 81.8736C257.717 81.8736 259.211 81.4768 260.56 80.6832C261.936 79.8896 263.02 78.8182 263.814 77.4691C264.634 76.12 265.044 74.6254 265.044 72.9853C265.044 70.5251 264.198 68.4221 262.505 66.6762C260.838 64.9038 258.695 64.0176 256.076 64.0176C255.283 64.0176 254.516 64.1366 253.775 64.3747C253.034 64.5863 252.32 64.8906 251.632 65.2874L246.791 56.7958L264.965 41.7174L265.758 44.0189H239.252V33.8608H274.964V44.0189L260.838 57.6688L260.759 54.6531C264.039 55.1557 266.803 56.3065 269.052 58.1053C271.327 59.8777 273.046 62.0733 274.21 64.6922C275.401 67.2846 275.996 70.049 275.996 72.9853C275.996 76.5829 275.083 79.8235 273.258 82.7069C271.433 85.5638 269.012 87.8388 265.997 89.5318C262.981 91.1984 259.674 92.0317 256.076 92.0317Z" fill="url(#paint1_angular_259_1766)"/>
</g>
<defs>
<filter id="filter0_d_259_1766" x="0.475586" y="0.67041" width="315.521" height="139.52" filterUnits="userSpaceOnUse" color-interpolation-filters="sRGB">
<feFlood flood-opacity="0" result="BackgroundImageFix"/>
<feColorMatrix in="SourceAlpha" type="matrix" values="0 0 0 0 0 0 0 0 0 0 0 0 0 0 0 0 0 0 127 0" result="hardAlpha"/>
<feOffset dy="8"/>
<feGaussianBlur stdDeviation="20"/>
<feComposite in2="hardAlpha" operator="out"/>
<feColorMatrix type="matrix" values="0 0 0 0 0 0 0 0 0 0 0 0 0 0 0 0 0 0 1 0"/>
<feBlend mode="normal" in2="BackgroundImageFix" result="effect1_dropShadow_259_1766"/>
<feBlend mode="normal" in="SourceGraphic" in2="effect1_dropShadow_259_1766" result="shape"/>
</filter>
<linearGradient id="paint0_linear_259_1766" x1="46.5733" y1="23.5333" x2="208.6" y2="116.12" gradientUnits="userSpaceOnUse">
<stop offset="0.254083" stop-color="white"/>
<stop offset="0.647942" stop-color="white" stop-opacity="0.73"/>
<stop offset="0.777657" stop-color="white"/>
</linearGradient>
<radialGradient id="paint1_angular_259_1766" cx="0" cy="0" r="1" gradientUnits="userSpaceOnUse" gradientTransform="translate(158.375 61.6941) rotate(23.4396) scale(96.0835 74.1453)">
<stop offset="0.390625" stop-color="#F3D7AF"/>
<stop offset="0.683294" stop-color="#CB9453"/>
<stop offset="1" stop-color="#D6AF80"/>
</radialGradient>
</defs>
</svg>
