<svg width="81" height="24" viewBox="0 0 81 24" fill="none" xmlns="http://www.w3.org/2000/svg">
<path fill-rule="evenodd" clip-rule="evenodd" d="M0.160026 0.18577C0.0129567 0.348213 0 1.30798 0 12.0156C0 23.182 0.00734811 23.6752 0.17685 23.8286C0.339293 23.9757 1.3066 23.9886 12.115 23.9886C23.644 23.9886 23.8782 23.9849 23.9763 23.8016C24.0437 23.6756 24.0764 19.8209 24.0764 11.9988C24.0764 4.17665 24.0437 0.321911 23.9763 0.195921C23.8782 0.0125921 23.6438 0.00891869 12.0981 0.00891869C0.810475 0.00891869 0.31338 0.0162683 0.160026 0.18577ZM28.2535 0.124951C28.085 0.293485 28.085 23.7041 28.2535 23.8726C28.4318 24.0509 35.8082 24.038 35.9566 23.8592C36.0304 23.7703 36.0719 22.5231 36.0892 19.8707L36.1146 16.0115L39.9738 15.9862C42.6261 15.9689 43.8734 15.9273 43.9623 15.8535C44.0663 15.7672 44.0917 15.0107 44.0917 11.9988C44.0917 8.63204 44.0755 8.23792 43.9319 8.1187C43.8037 8.01224 43.012 7.98062 39.9191 7.95867L36.0662 7.93131V4.08614C36.0662 1.22434 36.0366 0.211297 35.9502 0.124951C35.7836 -0.0416502 28.4201 -0.0416502 28.2535 0.124951ZM44.2727 0.168847C44.1655 0.298125 44.14 1.02805 44.14 3.98471C44.14 7.36556 44.153 7.6537 44.3127 7.81334C44.4724 7.97308 44.7605 7.98604 48.1414 7.98604C51.098 7.98604 51.828 7.96061 51.9572 7.85337C52.1009 7.73406 52.1172 7.34158 52.1172 3.98085C52.1172 1.20094 52.0874 0.2112 52.0011 0.124951C51.9149 0.0387011 50.9251 0.00891869 48.1452 0.00891869C44.7845 0.00891869 44.392 0.0251622 44.2727 0.168847ZM56.2783 0.195921C56.2145 0.315336 56.1782 1.69059 56.1782 3.9968C56.1782 6.96525 56.2027 7.64413 56.3155 7.79836C56.4472 7.9785 56.6021 7.98604 60.191 7.98604C63.7798 7.98604 63.9347 7.9785 64.0665 7.79836C64.1792 7.64413 64.2037 6.96052 64.2037 3.9617C64.2037 0.773466 64.1846 0.293582 64.0518 0.160824C63.9189 0.0279685 63.429 0.00891869 60.1391 0.00891869C56.52 0.00891869 56.3746 0.0159763 56.2783 0.195921ZM72.3292 0.195921C72.2654 0.315336 72.2292 1.69059 72.2292 3.9968C72.2292 6.96419 72.2537 7.64423 72.3664 7.79836C72.4971 7.97724 72.6681 7.98739 76.0165 8.01418C77.9486 8.02965 79.6243 8.01872 79.7402 7.9899C80.2632 7.85966 80.2546 7.92725 80.2546 3.9733C80.2546 0.774529 80.2355 0.293679 80.1027 0.160824C79.9698 0.0279685 79.4799 0.00891869 76.1901 0.00891869C72.5709 0.00891869 72.4256 0.0159763 72.3292 0.195921ZM15.9509 8.22139C16.0876 8.47685 16.0876 15.5207 15.9509 15.7761C15.8545 15.9561 15.7092 15.9632 12.09 15.9632C8.80016 15.9632 8.31032 15.9441 8.17737 15.8113C8.04461 15.6784 8.02546 15.1975 8.02546 11.9988C8.02546 8.79999 8.04461 8.31914 8.17737 8.18628C8.31032 8.05343 8.80016 8.03438 12.09 8.03438C15.7092 8.03438 15.8545 8.04144 15.9509 8.22139ZM64.3038 8.22139C64.24 8.34071 64.2037 9.7088 64.2037 11.9988C64.2037 14.2887 64.24 15.6568 64.3038 15.7761C64.4002 15.9562 64.5461 15.9632 68.2164 15.9632C71.8868 15.9632 72.0327 15.9562 72.1291 15.7761C72.2658 15.5207 72.2658 8.47685 72.1291 8.22139C72.0327 8.04135 71.8868 8.03438 68.2164 8.03438C64.5461 8.03438 64.4002 8.04135 64.3038 8.22139ZM44.5089 16.0588C44.0979 16.2278 44.0836 16.3734 44.1125 20.1062C44.1345 22.9529 44.1667 23.7012 44.2727 23.8289C44.3919 23.9724 44.7857 23.9886 48.1452 23.9886C50.9251 23.9886 51.9149 23.9588 52.0011 23.8726C52.0874 23.7863 52.1172 22.7966 52.1172 20.0167C52.1172 16.6571 52.1009 16.2634 51.9574 16.1442C51.8294 16.0379 51.0939 16.0075 48.259 15.9917C46.3126 15.9808 44.6252 16.0109 44.5089 16.0588ZM56.565 16.0285C56.189 16.1675 56.1782 16.2774 56.1782 20.0007C56.1782 22.3069 56.2145 23.6822 56.2783 23.8016C56.3746 23.9816 56.52 23.9886 60.1391 23.9886C63.429 23.9886 63.9189 23.9696 64.0518 23.8367C64.1846 23.704 64.2037 23.2241 64.2037 20.0358C64.2037 17.038 64.1792 16.3534 64.0665 16.1992C63.9354 16.0198 63.7699 16.0107 60.3197 15.9932C58.3344 15.9832 56.6448 15.999 56.565 16.0285ZM72.6159 16.0285C72.2399 16.1675 72.2292 16.2774 72.2292 20.0007C72.2292 22.3069 72.2654 23.6822 72.3292 23.8016C72.4256 23.9816 72.5709 23.9886 76.1901 23.9886C79.4799 23.9886 79.9698 23.9696 80.1027 23.8367C80.2355 23.704 80.2546 23.2241 80.2546 20.0358C80.2546 17.038 80.2302 16.3534 80.1174 16.1992C79.9863 16.0198 79.8209 16.0107 76.3706 15.9932C74.3853 15.9832 72.6957 15.999 72.6159 16.0285Z" fill="black"/>
</svg>
