<svg width="24" height="24" viewBox="0 0 24 24" fill="none" xmlns="http://www.w3.org/2000/svg">
<path d="M22.5617 7.29922C22.4422 6.854 22.2078 6.44798 21.882 6.1218C21.5563 5.79563 21.1505 5.56073 20.7055 5.44063C19.0672 5 12.5 5 12.5 5C12.5 5 5.93281 5 4.29453 5.43828C3.84927 5.558 3.44334 5.79276 3.11751 6.119C2.79169 6.44524 2.55744 6.85146 2.43828 7.29688C2 8.9375 2 12.3594 2 12.3594C2 12.3594 2 15.7812 2.43828 17.4195C2.67969 18.3242 3.39219 19.0367 4.29453 19.2781C5.93281 19.7188 12.5 19.7188 12.5 19.7188C12.5 19.7188 19.0672 19.7188 20.7055 19.2781C21.6102 19.0367 22.3203 18.3242 22.5617 17.4195C23 15.7812 23 12.3594 23 12.3594C23 12.3594 23 8.9375 22.5617 7.29922ZM10.4141 15.5V9.21875L15.8516 12.3359L10.4141 15.5Z" fill="#DE3F3F"/>
</svg>
