<svg width="103" height="24" viewBox="0 0 103 24" fill="none" xmlns="http://www.w3.org/2000/svg">
<g clip-path="url(#clip0_512_214)">
<path d="M17.124 13.9198L19.841 16.6358L12.488 23.9888L5.136 16.6368L7.853 13.9198L12.489 18.5798L17.124 13.9198V13.9198ZM21.761 9.28377L24.5 11.9998L21.785 14.7158L19.068 11.9998L21.761 9.28377V9.28377ZM12.489 9.28377L15.205 11.9758L12.488 14.6928L9.772 11.9998L12.488 9.28477L12.489 9.28377ZM3.216 9.28377L5.91 11.9998L3.218 14.6918L0.5 11.9998L3.216 9.28377V9.28377ZM12.49 0.00976562L19.842 7.33977L17.125 10.0548L12.489 5.41877L7.854 10.0788L5.137 7.36277L12.489 0.0107656L12.49 0.00976562Z" fill="#FDC93F"/>
</g>
<path d="M41.62 18V6.48H46.148C46.8787 6.48 47.492 6.62933 47.988 6.928C48.484 7.22667 48.8573 7.61333 49.108 8.088C49.3587 8.55733 49.484 9.05333 49.484 9.576C49.484 10.2107 49.3267 10.7547 49.012 11.208C48.7027 11.6613 48.284 11.9707 47.756 12.136L47.74 11.744C48.476 11.9253 49.0413 12.28 49.436 12.808C49.8307 13.3307 50.028 13.9413 50.028 14.64C50.028 15.3173 49.892 15.9067 49.62 16.408C49.3533 16.9093 48.9613 17.3013 48.444 17.584C47.932 17.8613 47.3107 18 46.58 18H41.62ZM43.316 16.408H46.324C46.7027 16.408 47.0413 16.336 47.34 16.192C47.644 16.048 47.8813 15.8427 48.052 15.576C48.228 15.304 48.316 14.9813 48.316 14.608C48.316 14.2613 48.2387 13.9493 48.084 13.672C47.9347 13.3893 47.716 13.168 47.428 13.008C47.1453 12.8427 46.812 12.76 46.428 12.76H43.316V16.408ZM43.316 11.184H46.124C46.4333 11.184 46.7107 11.1227 46.956 11C47.2067 10.872 47.404 10.6907 47.548 10.456C47.6973 10.216 47.772 9.928 47.772 9.592C47.772 9.144 47.6227 8.776 47.324 8.488C47.0253 8.2 46.6253 8.056 46.124 8.056H43.316V11.184ZM51.78 7.944V6.32H53.452V7.944H51.78ZM51.78 18V9.36H53.452V18H51.78ZM61.9184 18V13.752C61.9184 13.416 61.889 13.072 61.8304 12.72C61.777 12.3627 61.6704 12.032 61.5104 11.728C61.3557 11.424 61.1344 11.1787 60.8464 10.992C60.5637 10.8053 60.193 10.712 59.7344 10.712C59.4357 10.712 59.153 10.7627 58.8864 10.864C58.6197 10.96 58.385 11.1173 58.1824 11.336C57.985 11.5547 57.8277 11.8427 57.7104 12.2C57.5984 12.5573 57.5424 12.992 57.5424 13.504L56.5024 13.112C56.5024 12.328 56.649 11.6373 56.9424 11.04C57.2357 10.4373 57.657 9.968 58.2064 9.632C58.7557 9.296 59.4197 9.128 60.1984 9.128C60.7957 9.128 61.297 9.224 61.7024 9.416C62.1077 9.608 62.4357 9.86133 62.6864 10.176C62.9424 10.4853 63.137 10.824 63.2704 11.192C63.4037 11.56 63.4944 11.92 63.5424 12.272C63.5904 12.624 63.6144 12.9333 63.6144 13.2V18H61.9184ZM55.8464 18V9.36H57.3424V11.856H57.5424V18H55.8464ZM68.1381 18.24C67.4981 18.24 66.9621 18.1227 66.5301 17.888C66.0981 17.648 65.7701 17.3333 65.5461 16.944C65.3275 16.5493 65.2181 16.1173 65.2181 15.648C65.2181 15.2107 65.2955 14.8267 65.4501 14.496C65.6048 14.1653 65.8341 13.8853 66.1381 13.656C66.4421 13.4213 66.8155 13.232 67.2581 13.088C67.6421 12.976 68.0768 12.8773 68.5621 12.792C69.0475 12.7067 69.5568 12.6267 70.0901 12.552C70.6288 12.4773 71.1621 12.4027 71.6901 12.328L71.0821 12.664C71.0928 11.9867 70.9488 11.4853 70.6501 11.16C70.3568 10.8293 69.8501 10.664 69.1301 10.664C68.6768 10.664 68.2608 10.7707 67.8821 10.984C67.5035 11.192 67.2395 11.5387 67.0901 12.024L65.5301 11.544C65.7435 10.8027 66.1488 10.2133 66.7461 9.776C67.3488 9.33867 68.1488 9.12 69.1461 9.12C69.9195 9.12 70.5915 9.25333 71.1621 9.52C71.7381 9.78133 72.1595 10.1973 72.4261 10.768C72.5648 11.0507 72.6501 11.3493 72.6821 11.664C72.7141 11.9787 72.7301 12.3173 72.7301 12.68V18H71.2501V16.024L71.5381 16.28C71.1808 16.9413 70.7248 17.4347 70.1701 17.76C69.6208 18.08 68.9435 18.24 68.1381 18.24ZM68.4341 16.872C68.9088 16.872 69.3168 16.7893 69.6581 16.624C69.9995 16.4533 70.2741 16.2373 70.4821 15.976C70.6901 15.7147 70.8261 15.4427 70.8901 15.16C70.9808 14.904 71.0315 14.616 71.0421 14.296C71.0581 13.976 71.0661 13.72 71.0661 13.528L71.6101 13.728C71.0821 13.808 70.6021 13.88 70.1701 13.944C69.7381 14.008 69.3461 14.072 68.9941 14.136C68.6475 14.1947 68.3381 14.2667 68.0661 14.352C67.8368 14.432 67.6315 14.528 67.4501 14.64C67.2741 14.752 67.1328 14.888 67.0261 15.048C66.9248 15.208 66.8741 15.4027 66.8741 15.632C66.8741 15.856 66.9301 16.064 67.0421 16.256C67.1541 16.4427 67.3248 16.592 67.5541 16.704C67.7835 16.816 68.0768 16.872 68.4341 16.872ZM80.8715 18V13.752C80.8715 13.416 80.8422 13.072 80.7835 12.72C80.7302 12.3627 80.6235 12.032 80.4635 11.728C80.3088 11.424 80.0875 11.1787 79.7995 10.992C79.5168 10.8053 79.1462 10.712 78.6875 10.712C78.3888 10.712 78.1062 10.7627 77.8395 10.864C77.5728 10.96 77.3382 11.1173 77.1355 11.336C76.9382 11.5547 76.7808 11.8427 76.6635 12.2C76.5515 12.5573 76.4955 12.992 76.4955 13.504L75.4555 13.112C75.4555 12.328 75.6022 11.6373 75.8955 11.04C76.1888 10.4373 76.6102 9.968 77.1595 9.632C77.7088 9.296 78.3728 9.128 79.1515 9.128C79.7488 9.128 80.2502 9.224 80.6555 9.416C81.0608 9.608 81.3888 9.86133 81.6395 10.176C81.8955 10.4853 82.0902 10.824 82.2235 11.192C82.3568 11.56 82.4475 11.92 82.4955 12.272C82.5435 12.624 82.5675 12.9333 82.5675 13.2V18H80.8715ZM74.7995 18V9.36H76.2955V11.856H76.4955V18H74.7995ZM88.2379 18.24C87.3525 18.24 86.6005 18.0427 85.9819 17.648C85.3632 17.2533 84.8885 16.712 84.5579 16.024C84.2325 15.336 84.0672 14.5547 84.0619 13.68C84.0672 12.7893 84.2379 12.0027 84.5739 11.32C84.9099 10.632 85.3899 10.0933 86.0139 9.704C86.6379 9.31467 87.3872 9.12 88.2619 9.12C89.2059 9.12 90.0112 9.35467 90.6779 9.824C91.3499 10.2933 91.7925 10.936 92.0059 11.752L90.3419 12.232C90.1765 11.7467 89.9045 11.3707 89.5259 11.104C89.1525 10.832 88.7232 10.696 88.2379 10.696C87.6885 10.696 87.2379 10.8267 86.8859 11.088C86.5339 11.344 86.2725 11.696 86.1019 12.144C85.9312 12.592 85.8432 13.104 85.8379 13.68C85.8432 14.5707 86.0459 15.2907 86.4459 15.84C86.8512 16.3893 87.4485 16.664 88.2379 16.664C88.7765 16.664 89.2112 16.5413 89.5419 16.296C89.8779 16.0453 90.1339 15.688 90.3099 15.224L92.0059 15.624C91.7232 16.4667 91.2565 17.1147 90.6059 17.568C89.9552 18.016 89.1659 18.24 88.2379 18.24ZM97.2333 18.24C96.3746 18.24 95.6199 18.0533 94.9693 17.68C94.3239 17.3013 93.8199 16.776 93.4572 16.104C93.0999 15.4267 92.9213 14.6427 92.9213 13.752C92.9213 12.808 93.0973 11.9893 93.4493 11.296C93.8066 10.6027 94.3026 10.0667 94.9373 9.688C95.5719 9.30933 96.3106 9.12 97.1533 9.12C98.0333 9.12 98.7826 9.32533 99.4013 9.736C100.02 10.1413 100.481 10.72 100.785 11.472C101.095 12.224 101.217 13.1173 101.153 14.152H99.4813V13.544C99.4706 12.5413 99.2786 11.8 98.9053 11.32C98.5373 10.84 97.9746 10.6 97.2173 10.6C96.3799 10.6 95.7506 10.864 95.3293 11.392C94.9079 11.92 94.6973 12.6827 94.6973 13.68C94.6973 14.6293 94.9079 15.3653 95.3293 15.888C95.7506 16.4053 96.3586 16.664 97.1533 16.664C97.6759 16.664 98.1266 16.5467 98.5053 16.312C98.8893 16.072 99.1879 15.7307 99.4013 15.288L101.041 15.808C100.705 16.5813 100.196 17.1813 99.5133 17.608C98.8306 18.0293 98.0706 18.24 97.2333 18.24ZM94.1533 14.152V12.848H100.321V14.152H94.1533Z" fill="white" fill-opacity="0.87"/>
<defs>
<clipPath id="clip0_512_214">
<rect width="24" height="24" fill="white" transform="translate(0.5)"/>
</clipPath>
</defs>
</svg>
