<svg width="81" height="24" viewBox="0 0 81 24" fill="none" xmlns="http://www.w3.org/2000/svg">
<path fill-rule="evenodd" clip-rule="evenodd" d="M0.660026 0.18577C0.512957 0.348213 0.5 1.30798 0.5 12.0156C0.5 23.182 0.507348 23.6752 0.67685 23.8286C0.839293 23.9757 1.8066 23.9886 12.615 23.9886C24.144 23.9886 24.3782 23.9849 24.4763 23.8016C24.5437 23.6756 24.5764 19.8209 24.5764 11.9988C24.5764 4.17665 24.5437 0.321911 24.4763 0.195921C24.3782 0.0125921 24.1438 0.00891869 12.5981 0.00891869C1.31047 0.00891869 0.81338 0.0162683 0.660026 0.18577ZM28.7535 0.124951C28.585 0.293485 28.585 23.7041 28.7535 23.8726C28.9318 24.0509 36.3082 24.038 36.4566 23.8592C36.5304 23.7703 36.5719 22.5231 36.5892 19.8707L36.6146 16.0115L40.4738 15.9862C43.1261 15.9689 44.3734 15.9273 44.4623 15.8535C44.5663 15.7672 44.5917 15.0107 44.5917 11.9988C44.5917 8.63204 44.5755 8.23792 44.4319 8.1187C44.3037 8.01224 43.512 7.98062 40.4191 7.95867L36.5662 7.93131V4.08614C36.5662 1.22434 36.5366 0.211297 36.4502 0.124951C36.2836 -0.0416502 28.9201 -0.0416502 28.7535 0.124951ZM44.7727 0.168847C44.6655 0.298125 44.64 1.02805 44.64 3.98471C44.64 7.36556 44.653 7.6537 44.8127 7.81334C44.9724 7.97308 45.2605 7.98604 48.6414 7.98604C51.598 7.98604 52.328 7.96061 52.4572 7.85337C52.6009 7.73406 52.6172 7.34158 52.6172 3.98085C52.6172 1.20094 52.5874 0.2112 52.5011 0.124951C52.4149 0.0387011 51.4251 0.00891869 48.6452 0.00891869C45.2845 0.00891869 44.892 0.0251622 44.7727 0.168847ZM56.7783 0.195921C56.7145 0.315336 56.6782 1.69059 56.6782 3.9968C56.6782 6.96525 56.7027 7.64413 56.8155 7.79836C56.9472 7.9785 57.1021 7.98604 60.691 7.98604C64.2798 7.98604 64.4347 7.9785 64.5665 7.79836C64.6792 7.64413 64.7037 6.96052 64.7037 3.9617C64.7037 0.773466 64.6846 0.293582 64.5518 0.160824C64.4189 0.0279685 63.929 0.00891869 60.6391 0.00891869C57.02 0.00891869 56.8746 0.0159763 56.7783 0.195921ZM72.8292 0.195921C72.7654 0.315336 72.7292 1.69059 72.7292 3.9968C72.7292 6.96419 72.7537 7.64423 72.8664 7.79836C72.9971 7.97724 73.1681 7.98739 76.5165 8.01418C78.4486 8.02965 80.1243 8.01872 80.2402 7.9899C80.7632 7.85966 80.7546 7.92725 80.7546 3.9733C80.7546 0.774529 80.7355 0.293679 80.6027 0.160824C80.4698 0.0279685 79.9799 0.00891869 76.6901 0.00891869C73.0709 0.00891869 72.9256 0.0159763 72.8292 0.195921ZM16.4509 8.22139C16.5876 8.47685 16.5876 15.5207 16.4509 15.7761C16.3545 15.9561 16.2092 15.9632 12.59 15.9632C9.30016 15.9632 8.81032 15.9441 8.67737 15.8113C8.54461 15.6784 8.52546 15.1975 8.52546 11.9988C8.52546 8.79999 8.54461 8.31914 8.67737 8.18628C8.81032 8.05343 9.30016 8.03438 12.59 8.03438C16.2092 8.03438 16.3545 8.04144 16.4509 8.22139ZM64.8038 8.22139C64.74 8.34071 64.7037 9.7088 64.7037 11.9988C64.7037 14.2887 64.74 15.6568 64.8038 15.7761C64.9002 15.9562 65.0461 15.9632 68.7164 15.9632C72.3868 15.9632 72.5327 15.9562 72.6291 15.7761C72.7658 15.5207 72.7658 8.47685 72.6291 8.22139C72.5327 8.04135 72.3868 8.03438 68.7164 8.03438C65.0461 8.03438 64.9002 8.04135 64.8038 8.22139ZM45.0089 16.0588C44.5979 16.2278 44.5836 16.3734 44.6125 20.1062C44.6345 22.9529 44.6667 23.7012 44.7727 23.8289C44.8919 23.9724 45.2857 23.9886 48.6452 23.9886C51.4251 23.9886 52.4149 23.9588 52.5011 23.8726C52.5874 23.7863 52.6172 22.7966 52.6172 20.0167C52.6172 16.6571 52.6009 16.2634 52.4574 16.1442C52.3294 16.0379 51.5939 16.0075 48.759 15.9917C46.8126 15.9807 45.1252 16.0109 45.0089 16.0588ZM57.065 16.0285C56.689 16.1675 56.6782 16.2774 56.6782 20.0007C56.6782 22.3069 56.7145 23.6822 56.7783 23.8016C56.8746 23.9816 57.02 23.9886 60.6391 23.9886C63.929 23.9886 64.4189 23.9696 64.5518 23.8367C64.6846 23.704 64.7037 23.2241 64.7037 20.0358C64.7037 17.038 64.6792 16.3534 64.5665 16.1992C64.4354 16.0198 64.2699 16.0107 60.8197 15.9932C58.8344 15.9832 57.1448 15.999 57.065 16.0285ZM73.1159 16.0285C72.7399 16.1675 72.7292 16.2774 72.7292 20.0007C72.7292 22.3069 72.7654 23.6822 72.8292 23.8016C72.9256 23.9816 73.0709 23.9886 76.6901 23.9886C79.9799 23.9886 80.4698 23.9696 80.6027 23.8367C80.7355 23.704 80.7546 23.2241 80.7546 20.0358C80.7546 17.038 80.7302 16.3534 80.6174 16.1992C80.4863 16.0198 80.3209 16.0107 76.8706 15.9932C74.8853 15.9832 73.1957 15.999 73.1159 16.0285Z" fill="black"/>
</svg>
