<svg width="22" height="15" viewBox="0 0 22 15" fill="none" xmlns="http://www.w3.org/2000/svg">
<path d="M21.1789 2.37637C21.0594 1.93114 20.825 1.52513 20.4992 1.19895C20.1734 0.872775 19.7677 0.63788 19.3227 0.517774C17.6844 0.0771485 11.1172 0.0771484 11.1172 0.0771484C11.1172 0.0771484 4.55 0.0771483 2.91172 0.51543C2.46645 0.635146 2.06053 0.869911 1.7347 1.19615C1.40888 1.52238 1.17462 1.92861 1.05547 2.37402C0.617187 4.01465 0.617188 7.43652 0.617188 7.43652C0.617188 7.43652 0.617187 10.8584 1.05547 12.4967C1.29687 13.4014 2.00937 14.1139 2.91172 14.3553C4.55 14.7959 11.1172 14.7959 11.1172 14.7959C11.1172 14.7959 17.6844 14.7959 19.3227 14.3553C20.2273 14.1139 20.9375 13.4014 21.1789 12.4967C21.6172 10.8584 21.6172 7.43652 21.6172 7.43652C21.6172 7.43652 21.6172 4.01465 21.1789 2.37637ZM9.03125 10.5771V4.2959L14.4688 7.41309L9.03125 10.5771Z" fill="#DE3F3F"/>
</svg>
