<svg width="24" height="24" viewBox="0 0 24 24" fill="none" xmlns="http://www.w3.org/2000/svg">
<path fill-rule="evenodd" clip-rule="evenodd" d="M11.2332 0.524002C8.41856 0.799322 5.97908 2.22324 4.42956 4.49527C3.71544 5.54238 3.21936 6.70771 2.98838 7.88085L2.93531 8.15032L2.44196 8.17223C2.01793 8.19112 1.90417 8.21499 1.63244 8.34213C1.19216 8.54818 0.913198 8.82134 0.697611 9.25764L0.518555 9.61988V11.9979V14.3759L0.697611 14.7382C0.913246 15.1745 1.19082 15.4463 1.63652 15.6574L1.95676 15.8091H2.89993C3.93606 15.8091 3.96612 15.8016 4.20697 15.4791C4.30396 15.3493 4.30631 15.2842 4.33205 12.0544C4.35727 8.88313 4.3622 8.74296 4.46575 8.24587C5.11616 5.12324 7.439 2.80653 10.562 2.16571C11.3354 2.00703 12.6383 2.00396 13.4146 2.15905C16.5441 2.78424 18.9025 5.13863 19.5376 8.27161C19.6446 8.79938 19.6467 8.87163 19.6467 11.9739C19.6467 15.532 19.6449 15.554 19.2827 16.664C18.5098 19.0323 16.6512 20.8753 14.3013 21.6036C13.6092 21.8181 13.1014 21.9097 12.3224 21.9607C11.6651 22.0037 11.5674 22.0404 11.356 22.3235C11.2174 22.5091 11.2174 22.9639 11.356 23.1495C11.6163 23.4981 11.8807 23.5532 12.8423 23.4593C13.9949 23.3468 14.9712 23.0719 16.0032 22.5692C17.7757 21.706 19.1503 20.3824 20.1173 18.6081C20.4924 17.92 20.8563 16.9058 21.0121 16.115L21.0651 15.8455L21.5585 15.8236C21.9825 15.8047 22.0963 15.7808 22.368 15.6537C22.8083 15.4476 23.0872 15.1745 23.3028 14.7382L23.4819 14.3759V11.9979V9.61988L23.3028 9.25764C23.0872 8.82134 22.8083 8.54818 22.368 8.34213C22.0963 8.21499 21.9825 8.19112 21.5585 8.17223L21.0651 8.15032L21.0121 7.88085C20.6268 5.92441 19.47 3.96318 17.9509 2.69114C16.2194 1.24119 14.1059 0.472514 11.9283 0.500751C11.6383 0.504538 11.3255 0.514989 11.2332 0.524002ZM11.3291 3.5903C9.89934 3.77233 8.68914 4.36468 7.68105 5.37598C6.95883 6.1005 6.53341 6.76801 6.21058 7.68329C5.89063 8.59027 5.88785 8.62411 5.88785 11.6144C5.88785 14.081 5.89586 14.3594 5.97736 14.7305C6.25004 15.9723 6.79066 16.964 7.67942 17.8528C8.56933 18.7427 9.57013 19.2877 10.8017 19.5532C11.3715 19.676 12.629 19.676 13.1987 19.5532C14.441 19.2854 15.4146 18.7547 16.321 17.8512C17.2088 16.9662 17.7501 15.9738 18.0231 14.7305C18.1046 14.3594 18.1126 14.081 18.1126 11.6144C18.1126 9.14776 18.1046 8.86938 18.0231 8.49827C17.7501 7.25499 17.2088 6.26258 16.321 5.37761C15.4307 4.49009 14.5001 3.97401 13.2946 3.69917C12.8944 3.60794 11.7072 3.54217 11.3291 3.5903Z" fill="white"/>
</svg>
