<svg width="32" height="32" viewBox="0 0 32 32" fill="none" xmlns="http://www.w3.org/2000/svg">
<path fill-rule="evenodd" clip-rule="evenodd" d="M7.9998 14.4002V11.2002C7.9998 9.07846 8.84266 7.04363 10.3429 5.54334C11.8432 4.04305 13.8781 3.2002 15.9998 3.2002C18.1215 3.2002 20.1564 4.04305 21.6567 5.54334C23.1569 7.04363 23.9998 9.07846 23.9998 11.2002V14.4002C24.8485 14.4002 25.6624 14.7373 26.2625 15.3375C26.8627 15.9376 27.1998 16.7515 27.1998 17.6002V25.6002C27.1998 26.4489 26.8627 27.2628 26.2625 27.8629C25.6624 28.4631 24.8485 28.8002 23.9998 28.8002H7.9998C7.15111 28.8002 6.33718 28.4631 5.73706 27.8629C5.13695 27.2628 4.7998 26.4489 4.7998 25.6002V17.6002C4.7998 16.7515 5.13695 15.9376 5.73706 15.3375C6.33718 14.7373 7.15111 14.4002 7.9998 14.4002ZM20.7998 11.2002V14.4002H11.1998V11.2002C11.1998 9.92716 11.7055 8.70626 12.6057 7.80608C13.5059 6.90591 14.7268 6.4002 15.9998 6.4002C17.2728 6.4002 18.4937 6.90591 19.3939 7.80608C20.2941 8.70626 20.7998 9.92716 20.7998 11.2002Z" fill="url(#paint0_linear_813_41519)"/>
<defs>
<linearGradient id="paint0_linear_813_41519" x1="4.7998" y1="10.7934" x2="25.9399" y2="15.1681" gradientUnits="userSpaceOnUse">
<stop stop-color="#B3854D"/>
<stop offset="0.28125" stop-color="#F3D7AF"/>
<stop offset="1" stop-color="#C6A47C"/>
</linearGradient>
</defs>
</svg>
