<svg width="20" height="20" viewBox="0 0 20 20" fill="none" xmlns="http://www.w3.org/2000/svg">
<path d="M11.8204 20H8.18037C7.9523 20 7.73107 19.9221 7.55337 19.7792C7.37567 19.6362 7.25218 19.4368 7.20337 19.214L6.79637 17.33C6.25343 17.0921 5.73861 16.7946 5.26137 16.443L3.42437 17.028C3.20694 17.0973 2.97232 17.0902 2.75949 17.0078C2.54666 16.9254 2.36842 16.7727 2.25437 16.575L0.430373 13.424C0.317518 13.2261 0.275155 12.9958 0.310215 12.7708C0.345275 12.5457 0.455682 12.3392 0.623373 12.185L2.04837 10.885C1.98357 10.2961 1.98357 9.70189 2.04837 9.113L0.623373 7.816C0.455444 7.66177 0.344887 7.45507 0.309822 7.22978C0.274756 7.00449 0.317262 6.77397 0.430373 6.576L2.25037 3.423C2.36442 3.22532 2.54266 3.07259 2.75549 2.99019C2.96832 2.90778 3.20294 2.90066 3.42037 2.97L5.25737 3.555C5.50137 3.375 5.75537 3.207 6.01737 3.055C6.27037 2.913 6.53037 2.784 6.79637 2.669L7.20437 0.787C7.25294 0.564198 7.3762 0.364688 7.55372 0.221549C7.73123 0.0784098 7.95234 0.000239966 8.18037 0H11.8204C12.0484 0.000239966 12.2695 0.0784098 12.447 0.221549C12.6245 0.364688 12.7478 0.564198 12.7964 0.787L13.2084 2.67C13.7506 2.90927 14.2653 3.20668 14.7434 3.557L16.5814 2.972C16.7987 2.90292 17.0331 2.91017 17.2457 2.99256C17.4583 3.07495 17.6364 3.22753 17.7504 3.425L19.5704 6.578C19.8024 6.985 19.7224 7.5 19.3774 7.817L17.9524 9.117C18.0172 9.70589 18.0172 10.3001 17.9524 10.889L19.3774 12.189C19.7224 12.507 19.8024 13.021 19.5704 13.428L17.7504 16.581C17.6363 16.7787 17.4581 16.9314 17.2453 17.0138C17.0324 17.0962 16.7978 17.1033 16.5804 17.034L14.7434 16.449C14.2665 16.8003 13.752 17.0975 13.2094 17.335L12.7964 19.214C12.7476 19.4366 12.6243 19.6359 12.4468 19.7788C12.2693 19.9218 12.0483 19.9998 11.8204 20ZM9.99637 6C8.93551 6 7.91809 6.42143 7.16795 7.17157C6.4178 7.92172 5.99637 8.93913 5.99637 10C5.99637 11.0609 6.4178 12.0783 7.16795 12.8284C7.91809 13.5786 8.93551 14 9.99637 14C11.0572 14 12.0747 13.5786 12.8248 12.8284C13.5749 12.0783 13.9964 11.0609 13.9964 10C13.9964 8.93913 13.5749 7.92172 12.8248 7.17157C12.0747 6.42143 11.0572 6 9.99637 6Z" fill="white"/>
</svg>
