<svg width="1235" height="606" viewBox="0 0 1235 606" fill="none" xmlns="http://www.w3.org/2000/svg">
<path d="M155.502 593V499.357H-106.195V393.173L83.5982 -8.98818H214.029L24.2355 393.173H155.502V242.676H270.883V393.173H324.393V499.357H270.883V593H155.502ZM564.549 605.541C519.957 605.541 480.939 596.205 447.495 577.532C414.052 558.859 387.993 532.801 369.321 499.357C350.648 465.914 341.311 426.896 341.311 382.304V201.708C341.311 157.116 350.648 118.098 369.321 84.6544C387.993 51.2106 414.052 25.1523 447.495 6.47954C480.939 -12.1932 519.957 -21.5296 564.549 -21.5296C609.14 -21.5296 648.158 -12.1932 681.602 6.47954C715.046 25.1523 741.104 51.2106 759.777 84.6544C778.45 118.098 787.786 157.116 787.786 201.708V382.304C787.786 426.896 778.45 465.914 759.777 499.357C741.104 532.801 715.046 558.859 681.602 577.532C648.158 596.205 609.14 605.541 564.549 605.541ZM564.549 497.685C584.615 497.685 602.73 492.947 618.895 483.472C635.059 473.996 647.879 461.176 657.355 445.011C666.831 428.847 671.569 410.731 671.569 390.665V192.511C671.569 172.444 666.831 154.329 657.355 138.164C647.879 122 635.059 109.18 618.895 99.7041C602.73 90.2284 584.615 85.4905 564.549 85.4905C544.482 85.4905 526.367 90.2284 510.202 99.7041C494.038 109.18 481.218 122 471.742 138.164C462.266 154.329 457.528 172.444 457.528 192.511V390.665C457.528 410.731 462.266 428.847 471.742 445.011C481.218 461.176 494.038 473.996 510.202 483.472C526.367 492.947 544.482 497.685 564.549 497.685ZM1066.06 593V499.357H804.364V393.173L994.158 -8.98818H1124.59L934.795 393.173H1066.06V242.676H1181.44V393.173H1234.95V499.357H1181.44V593H1066.06Z" fill="#222123"/>
</svg>
