<svg width="1457" height="361" viewBox="0 0 1457 361" fill="none" xmlns="http://www.w3.org/2000/svg">
<g clip-path="url(#clip0_1165_1287)">
<g filter="url(#filter0_i_1165_1287)">
<path d="M1004.89 200.943L1072.16 132.481L1071.73 45.5559L1036.92 83.7264L932.05 191.84V4.4873H865.7L865.485 160.089V350.297H932.093V212.171L1021.97 350.297H1107.08L1004.89 200.943Z" fill="black" fill-opacity="0.03"/>
</g>
<g filter="url(#filter1_i_1165_1287)">
<path d="M1117.65 4.4873L1089.2 31.0435L1089.78 116.916L1131.96 75.6114V350.404H1198.78V4.4873H1117.65Z" fill="black" fill-opacity="0.03"/>
</g>
<g filter="url(#filter2_i_1165_1287)">
<path d="M1457 241.217C1457.28 262.021 1451.52 282.46 1440.41 300.061C1424.42 324.672 1400.21 342.814 1372.08 351.259C1343.96 359.703 1313.75 357.902 1286.83 346.175C1271.26 339.221 1257.28 329.17 1245.73 316.635C1234.12 303.86 1225.65 288.566 1220.97 271.959L1284.42 255.15C1287.28 267.059 1294.29 277.558 1304.21 284.754C1313.62 291.463 1324.88 295.073 1336.44 295.081C1345.98 295.188 1355.37 292.694 1363.6 287.867C1371.77 283.225 1378.57 276.517 1383.32 268.417C1388.27 260.214 1390.81 250.791 1390.67 241.217C1390.79 234.147 1389.49 227.124 1386.85 220.564C1384.21 214.004 1380.28 208.04 1375.29 203.025C1365.15 192.363 1352.2 187.024 1336.44 187.01C1331.71 186.996 1327 187.72 1322.5 189.157C1317.99 190.476 1313.66 192.336 1309.6 194.695L1280.1 143.301L1373.38 66.0151H1234.42V4.4873H1450.75V65.9722L1380.51 133.876C1393.01 137.344 1404.7 143.27 1414.89 151.308C1428.48 161.781 1439.22 175.486 1446.15 191.175C1453.36 206.872 1457.06 223.947 1457 241.217Z" fill="black" fill-opacity="0.03"/>
</g>
<g filter="url(#filter3_i_1165_1287)">
<path d="M127.95 360.773C102.167 360.773 80.6019 354.762 63.2553 342.74C45.7578 330.491 32.1479 313.48 24.043 293.728C15.4486 273.047 11.1513 249.733 11.1513 223.785C11.1513 197.837 15.4486 174.53 24.043 153.863C31.8999 134.231 45.1691 117.229 62.3099 104.83C79.1551 92.8362 99.9251 86.8322 124.62 86.8179C149.315 86.8036 170.966 92.7288 189.573 104.594C208.103 116.557 222.925 133.449 232.373 153.369C242.644 173.893 247.779 197.365 247.779 223.785C247.779 249.747 242.722 273.062 232.609 293.728C223.376 313.557 208.915 330.5 190.776 342.74C172.785 354.762 151.843 360.773 127.95 360.773ZM0 353.56V7.51445H65.8981V175.718H57.7334V353.56H0ZM117.379 302.616C131.474 302.616 143.012 299.088 151.993 292.032C161.176 284.65 168.075 274.816 171.89 263.673C176.332 250.85 178.513 237.353 178.335 223.785C178.5 210.346 176.214 196.99 171.589 184.369C167.601 173.012 160.37 163.07 150.79 155.774C141.508 148.618 129.569 145.04 114.973 145.04C101.336 145.04 90.2706 148.324 81.7764 154.894C73.0371 162.055 66.6643 171.684 63.4917 182.523C59.4276 195.914 57.4846 209.858 57.7334 223.849C57.4845 237.848 59.4274 251.799 63.4917 265.197C66.7284 276.102 73.2846 285.73 82.2491 292.741C91.0871 299.324 102.797 302.616 117.379 302.616ZM257.426 354.14V0.773438H322.83V354.032L257.426 354.14ZM463.801 360.881C437.645 360.881 414.726 355.034 395.045 343.341C375.448 331.775 359.449 315.001 348.828 294.888C337.942 274.207 332.492 250.491 332.477 223.742C332.477 196.678 338.085 172.891 349.301 152.382C359.981 132.28 376.061 115.552 395.733 104.078C415.457 92.5285 438.146 86.7607 463.801 86.775C489.928 86.775 512.847 92.6215 532.557 104.314C552.273 115.83 568.354 132.649 578.967 152.854C590.025 173.363 595.561 196.978 595.576 223.699C595.59 250.42 589.975 274.214 578.731 295.081C568.056 315.18 551.984 331.907 532.32 343.384C512.625 354.977 489.785 360.773 463.801 360.773V360.881ZM463.801 299.825C484.786 299.825 500.413 292.777 510.684 278.679C520.954 264.582 526.197 246.284 526.412 223.785C526.412 200.728 521.119 182.308 510.533 168.526C499.948 154.743 484.399 147.852 463.887 147.852C449.563 147.852 437.853 151.058 428.757 157.47C419.4 164.105 412.251 173.393 408.238 184.133C403.694 196.849 401.51 210.286 401.792 223.785C401.792 247.014 406.999 265.519 417.412 279.302C427.826 293.084 443.289 299.89 463.801 299.718V299.825ZM734.269 360.881C707.325 360.881 684.235 354.87 664.998 342.847C645.92 330.999 630.578 314.01 620.736 293.836C610.494 273.155 605.366 249.84 605.352 223.892C605.352 197.615 610.645 174.143 621.23 153.477C631.457 133.355 647.078 116.469 666.351 104.701C685.746 92.8505 708.665 86.9253 735.107 86.9253C765.732 86.9253 791.387 94.6967 812.071 110.24C832.755 125.783 846.062 146.85 851.992 173.442L786.566 190.745C783.411 178.345 776.326 167.297 766.369 159.252C757.272 151.848 745.872 147.854 734.14 147.959C720.346 147.959 709.044 151.323 700.235 158.049C691.167 164.951 684.379 174.411 680.747 185.207C676.41 197.621 674.294 210.702 674.495 223.849C674.495 246.434 679.465 264.782 689.406 278.894C699.347 293.006 714.258 299.968 734.14 299.782C748.88 299.782 760.103 296.419 767.809 289.692C775.515 282.966 781.288 273.355 785.127 260.861L851.992 274.793C844.629 302.358 830.678 323.591 810.137 338.489C789.596 353.388 764.307 360.816 734.269 360.773V360.881Z" fill="black" fill-opacity="0.03"/>
</g>
</g>
<defs>
<filter id="filter0_i_1165_1287" x="865.485" y="4.4873" width="241.591" height="346.81" filterUnits="userSpaceOnUse" color-interpolation-filters="sRGB">
<feFlood flood-opacity="0" result="BackgroundImageFix"/>
<feBlend mode="normal" in="SourceGraphic" in2="BackgroundImageFix" result="shape"/>
<feColorMatrix in="SourceAlpha" type="matrix" values="0 0 0 0 0 0 0 0 0 0 0 0 0 0 0 0 0 0 127 0" result="hardAlpha"/>
<feOffset dy="1"/>
<feGaussianBlur stdDeviation="1"/>
<feComposite in2="hardAlpha" operator="arithmetic" k2="-1" k3="1"/>
<feColorMatrix type="matrix" values="0 0 0 0 0 0 0 0 0 0 0 0 0 0 0 0 0 0 0.08 0"/>
<feBlend mode="normal" in2="shape" result="effect1_innerShadow_1165_1287"/>
</filter>
<filter id="filter1_i_1165_1287" x="1089.2" y="4.4873" width="109.58" height="346.917" filterUnits="userSpaceOnUse" color-interpolation-filters="sRGB">
<feFlood flood-opacity="0" result="BackgroundImageFix"/>
<feBlend mode="normal" in="SourceGraphic" in2="BackgroundImageFix" result="shape"/>
<feColorMatrix in="SourceAlpha" type="matrix" values="0 0 0 0 0 0 0 0 0 0 0 0 0 0 0 0 0 0 127 0" result="hardAlpha"/>
<feOffset dy="1"/>
<feGaussianBlur stdDeviation="1"/>
<feComposite in2="hardAlpha" operator="arithmetic" k2="-1" k3="1"/>
<feColorMatrix type="matrix" values="0 0 0 0 0 0 0 0 0 0 0 0 0 0 0 0 0 0 0.08 0"/>
<feBlend mode="normal" in2="shape" result="effect1_innerShadow_1165_1287"/>
</filter>
<filter id="filter2_i_1165_1287" x="1220.97" y="4.4873" width="236.035" height="353.014" filterUnits="userSpaceOnUse" color-interpolation-filters="sRGB">
<feFlood flood-opacity="0" result="BackgroundImageFix"/>
<feBlend mode="normal" in="SourceGraphic" in2="BackgroundImageFix" result="shape"/>
<feColorMatrix in="SourceAlpha" type="matrix" values="0 0 0 0 0 0 0 0 0 0 0 0 0 0 0 0 0 0 127 0" result="hardAlpha"/>
<feOffset dy="1"/>
<feGaussianBlur stdDeviation="1"/>
<feComposite in2="hardAlpha" operator="arithmetic" k2="-1" k3="1"/>
<feColorMatrix type="matrix" values="0 0 0 0 0 0 0 0 0 0 0 0 0 0 0 0 0 0 0.08 0"/>
<feBlend mode="normal" in2="shape" result="effect1_innerShadow_1165_1287"/>
</filter>
<filter id="filter3_i_1165_1287" x="0" y="0.773438" width="851.992" height="361.107" filterUnits="userSpaceOnUse" color-interpolation-filters="sRGB">
<feFlood flood-opacity="0" result="BackgroundImageFix"/>
<feBlend mode="normal" in="SourceGraphic" in2="BackgroundImageFix" result="shape"/>
<feColorMatrix in="SourceAlpha" type="matrix" values="0 0 0 0 0 0 0 0 0 0 0 0 0 0 0 0 0 0 127 0" result="hardAlpha"/>
<feOffset dy="1"/>
<feGaussianBlur stdDeviation="1"/>
<feComposite in2="hardAlpha" operator="arithmetic" k2="-1" k3="1"/>
<feColorMatrix type="matrix" values="0 0 0 0 0 0 0 0 0 0 0 0 0 0 0 0 0 0 0.08 0"/>
<feBlend mode="normal" in2="shape" result="effect1_innerShadow_1165_1287"/>
</filter>
<clipPath id="clip0_1165_1287">
<rect width="1457" height="360" fill="white" transform="translate(0 0.773438)"/>
</clipPath>
</defs>
</svg>
