<?xml version="1.0" encoding="utf-8"?>
<svg width="91px" height="91px" viewBox="0 0 91 91" version="1.1" xmlns:xlink="http://www.w3.org/1999/xlink" xmlns="http://www.w3.org/2000/svg">
  <defs>
    <path d="M0 0L91 0L91 91L0 91L0 0Z" id="path_1" />
    <clipPath id="mask_1">
      <use xlink:href="#path_1" />
    </clipPath>
  </defs>
  <g id="copy_paste_icon-icons.com_72426">
    <path d="M0 0L91 0L91 91L0 91L0 0Z" id="Background" fill="none" fill-rule="evenodd" stroke="none" />
    <g clip-path="url(#mask_1)">
      <g id="Group" transform="translate(22.710999 20.100952)">
        <path d="M19.689 21.917L36.706 21.917L36.706 25.317L19.689 25.317L19.689 21.917Z" id="Rectangle" fill="#FFFFFF" fill-rule="evenodd" stroke="none" />
        <path d="M19.689 28.823L24.789 28.823L24.789 32.223L19.689 32.223L19.689 28.823Z" id="Rectangle" fill="#FFFFFF" fill-rule="evenodd" stroke="none" />
        <path d="M27.777 28.823L32.878 28.823L32.878 32.223L27.777 32.223L27.777 28.823Z" id="Rectangle" fill="#FFFFFF" fill-rule="evenodd" stroke="none" />
        <path d="M1.7 54.367L31.541 54.367C34.693 54.367 37.258 51.803 37.258 48.651L37.258 45.876L40.987 45.876C44.138 45.876 46.702 43.312 46.702 40.159L46.702 13.7C46.702 13.218 46.497 12.788 46.175 12.478L46.18 12.473L33.667 0.473001C33.526 0.338001 33.365 0.240002 33.194 0.162001C33.145 0.140001 33.094 0.129 33.044 0.111C32.898 0.0599995 32.751 0.0300007 32.597 0.0209999C32.56 0.0189991 32.529 0 32.491 0L11.144 0C10.205 0 9.445 0.761 9.445 1.7L9.445 8.492L1.7 8.492C0.762001 8.492 0 9.253 0 10.192L0 52.667C1.90735e-06 53.606 0.762001 54.367 1.7 54.367L1.7 54.367ZM34.189 5.686L40.773 12L36.505 12C35.228 12 34.189 10.961 34.189 9.68401L34.189 5.686L34.189 5.686ZM12.845 3.4L30.789 3.4L30.789 9.684C30.789 12.836 33.353 15.4 36.506 15.4L43.302 15.4L43.302 40.159C43.302 41.436 42.263 42.475 40.987 42.475L12.845 42.475L12.845 3.4L12.845 3.4ZM3.4 11.892L9.445 11.892L9.445 44.175C9.445 45.114 10.205 45.876 11.144 45.876L33.857 45.876L33.857 48.651C33.857 49.927 32.818 50.967 31.541 50.967L3.4 50.967L3.4 11.892L3.4 11.892Z" id="Shape" fill="#FFFFFF" fill-rule="evenodd" stroke="none" />
      </g>
    </g>
  </g>
</svg>