<svg width="110" height="29" viewBox="0 0 110 29" fill="none" xmlns="http://www.w3.org/2000/svg">
<g clip-path="url(#clip0_828_54621)">
<path d="M19.2612 0.000976562V33.0535H25.1221V0.000976562H19.2612Z" fill="white"/>
<path d="M17.902 12.3159C17.1736 10.7132 16.0314 9.35404 14.6036 8.391C13.1822 7.43701 11.5139 6.96002 9.59878 6.96002C7.83166 6.96002 6.32464 7.37768 5.07771 8.213V0.581055H0V28.4214H4.44652V27.2116C4.58458 27.3268 4.72705 27.4374 4.87394 27.5434C6.20702 28.5113 7.86866 28.9946 9.85888 28.9934C11.7 28.9934 13.3125 28.5101 14.6964 27.5434C16.0947 26.559 17.2093 25.1955 17.9203 23.5996C18.6934 21.937 19.0799 20.0619 19.0799 17.9741C19.0855 15.8518 18.6928 13.9658 17.902 12.3159ZM13.2534 21.1904C12.9581 22.0872 12.425 22.8783 11.716 23.4717C11.0235 24.0386 10.1339 24.322 9.04711 24.322C7.92168 24.322 7.01934 24.0581 6.3401 23.5305C5.6487 22.9636 5.14376 22.1862 4.89548 21.3062C4.57971 20.2268 4.42821 19.1025 4.44652 17.9741C4.42852 16.8506 4.57889 15.731 4.89217 14.6559C5.13488 13.7842 5.6239 13.009 6.29537 12.4316C6.95804 11.904 7.81234 11.6401 8.85825 11.6401C9.98369 11.6401 10.9042 11.9282 11.6199 12.5042C12.3616 13.0897 12.9221 13.8896 13.2319 14.8045C13.5879 15.8194 13.7636 16.8935 13.7504 17.9741C13.7649 19.0682 13.5967 20.1565 13.2534 21.1904Z" fill="white"/>
<path d="M74.1461 16.3962L79.3349 10.8883L79.3017 3.89065L76.6163 6.96002L68.53 15.6704V0.581055H63.4142L63.3976 13.1074C62.9158 11.3929 61.9056 9.89187 60.5233 8.83689C58.9296 7.58564 56.9526 6.96002 54.5924 6.96002C52.5536 6.96002 50.7865 7.43701 49.291 8.391C47.8054 9.338 46.6009 10.6968 45.812 12.3159C45.4925 12.9642 45.2351 13.6438 45.0433 14.3448C44.8448 13.6254 44.5732 12.9302 44.2332 12.2709C43.414 10.646 42.175 9.29299 40.6564 8.36508C39.1356 7.42491 37.3685 6.95425 35.3551 6.9531C33.3792 6.9531 31.6309 7.41743 30.11 8.34607C28.5949 9.26929 27.3564 10.6146 26.5333 12.2312C25.6685 13.8811 25.2361 15.7954 25.2361 17.9741C25.2361 20.1252 25.6563 22.0326 26.4968 23.6964C27.3155 25.3104 28.5473 26.6559 30.0554 27.5832C31.574 28.5234 33.3411 28.9934 35.3567 28.9934C37.3723 28.9934 39.1328 28.5297 40.6382 27.6022C42.1541 26.6792 43.3928 25.3331 44.215 23.7154C44.5633 23.047 44.841 22.3412 45.0433 21.6104C45.2268 22.2958 45.4714 22.9617 45.7739 23.5996C46.5306 25.2237 47.7127 26.591 49.1833 27.5434C50.6655 28.5113 52.4448 28.9946 54.5212 28.9934C56.8405 28.9934 58.7926 28.3943 60.3775 27.1961C61.7791 26.1338 62.7825 24.6717 63.3877 22.8098V28.4128H68.54V17.3001L75.4698 28.4197H82.022L74.1461 16.3962ZM38.9699 22.3881C38.1803 23.5241 36.9758 24.0916 35.3567 24.0904C33.7873 24.0904 32.595 23.5426 31.78 22.4468C30.9649 21.3511 30.5634 19.8602 30.5756 17.9741C30.5546 16.8881 30.723 15.8071 31.0726 14.7838C31.3812 13.9206 31.9297 13.1732 32.6481 12.6373C33.3527 12.1223 34.2545 11.8648 35.3534 11.8648C36.9471 11.8648 38.1455 12.419 38.9484 13.5274C39.7513 14.6357 40.1605 16.118 40.176 17.9741C40.176 19.7715 39.774 21.2428 38.9699 22.3881ZM63.386 22.0424L58.4475 20.9675C58.1504 21.9721 57.7053 22.7453 57.1122 23.2868C56.5191 23.8283 55.6543 24.099 54.5178 24.099C52.9992 24.099 51.85 23.5385 51.0703 22.4175C50.2906 21.2964 49.9079 19.8153 49.9222 17.9741C49.9064 16.9157 50.0696 15.8626 50.4043 14.8633C50.6844 13.9952 51.2072 13.2343 51.9053 12.6788C52.5845 12.1384 53.4554 11.8677 54.5178 11.8665C55.4225 11.8576 56.3016 12.1792 57.0029 12.7756C57.7704 13.422 58.3167 14.3102 58.5601 15.3075L63.3976 13.9715L63.386 22.0424Z" fill="white"/>
<path d="M83.4957 0.581055L81.3088 2.7189L81.3536 9.63189L84.6056 6.30328V28.4249H89.7579V0.581055H83.4957Z" fill="url(#paint0_linear_828_54621)"/>
<path d="M110.003 19.6436C110.024 21.3184 109.58 22.9638 108.724 24.3808C107.491 26.362 105.624 27.8225 103.455 28.5023C101.287 29.1821 98.9574 29.0371 96.8818 28.093C95.6815 27.5332 94.6031 26.7241 93.7126 25.715C92.8172 24.6879 92.1628 23.4579 91.8008 22.1219L96.6929 20.7687C96.9124 21.7245 97.4509 22.5676 98.2121 23.1468C98.9374 23.6868 99.8061 23.9774 100.697 23.9781C101.433 23.9867 102.157 23.786 102.791 23.3974C103.421 23.0237 103.945 22.4837 104.312 21.8316C104.695 21.1736 104.894 20.4169 104.887 19.6471C104.897 19.0778 104.799 18.5121 104.596 17.9834C104.393 17.4547 104.091 16.9738 103.707 16.5691C102.929 15.7061 101.927 15.2746 100.704 15.2746C100.339 15.2735 99.9762 15.3318 99.6286 15.4474C99.2812 15.5537 98.9474 15.7034 98.6346 15.8933L96.36 11.7524L103.552 5.53076H92.8379V0.581055H109.517V5.53076L104.102 10.9903C105.066 11.2695 105.967 11.7466 106.752 12.3936C107.804 13.2352 108.637 14.3387 109.174 15.603C109.729 16.871 110.012 18.2499 110.003 19.6436Z" fill="url(#paint1_linear_828_54621)"/>
</g>
<defs>
<linearGradient id="paint0_linear_828_54621" x1="71.4582" y1="30.1082" x2="112.431" y2="-8.78265" gradientUnits="userSpaceOnUse">
<stop stop-color="#DDAE79"/>
<stop offset="0.34" stop-color="#CE8E42"/>
<stop offset="0.36" stop-color="#D09248"/>
<stop offset="0.39" stop-color="#D79D57"/>
<stop offset="0.43" stop-color="#E2AF71"/>
<stop offset="0.46" stop-color="#F1C995"/>
<stop offset="0.48" stop-color="#F9D7A9"/>
<stop offset="0.49" stop-color="#F7D4A6"/>
<stop offset="0.58" stop-color="#EBC392"/>
<stop offset="0.68" stop-color="#E3B784"/>
<stop offset="0.8" stop-color="#DEB07B"/>
<stop offset="1" stop-color="#DDAE79"/>
</linearGradient>
<linearGradient id="paint1_linear_828_54621" x1="70.5786" y1="30.6378" x2="103.902" y2="-36.304" gradientUnits="userSpaceOnUse">
<stop stop-color="#DDAE79"/>
<stop offset="0.34" stop-color="#CE8E42"/>
<stop offset="0.36" stop-color="#D09248"/>
<stop offset="0.39" stop-color="#D79D57"/>
<stop offset="0.43" stop-color="#E2AF71"/>
<stop offset="0.46" stop-color="#F1C995"/>
<stop offset="0.48" stop-color="#F9D7A9"/>
<stop offset="0.49" stop-color="#F7D4A6"/>
<stop offset="0.58" stop-color="#EBC392"/>
<stop offset="0.68" stop-color="#E3B784"/>
<stop offset="0.8" stop-color="#DEB07B"/>
<stop offset="1" stop-color="#DDAE79"/>
</linearGradient>
<clipPath id="clip0_828_54621">
<rect width="110" height="29" fill="white"/>
</clipPath>
</defs>
</svg>
